<svg version="1.1" xmlns="http://www.w3.org/2000/svg" viewBox="-2114.5600677490233 -817.1520263671875 6482.9441040039055 2167.808068847656"><desc>Created with Snap</desc><defs></defs><g><g transform="matrix(25.8901,0,0,25.8901,-1859.1403,-561.7323)"><path d="M13,50c2.757,0,5-2.243,5-5s-2.243-5-5-5s-5,2.243-5,5S10.243,50,13,50z M13,42c1.654,0,3,1.346,3,3s-1.346,3-3,3  s-3-1.346-3-3S11.346,42,13,42z" fill="#143d59" style=""></path><path d="M3,48h1.522c0.105,0.297,0.227,0.589,0.361,0.873L3.808,49.95c-0.188,0.188-0.293,0.442-0.293,0.707s0.105,0.52,0.293,0.707  l2.828,2.829c0.391,0.391,1.023,0.391,1.414,0l1.077-1.076c0.284,0.135,0.575,0.256,0.873,0.361V55c0,0.552,0.447,1,1,1h4  c0.553,0,1-0.448,1-1v-1.522c0.298-0.105,0.589-0.226,0.873-0.361l1.077,1.076c0.391,0.391,1.023,0.391,1.414,0l2.828-2.829  c0.188-0.188,0.293-0.442,0.293-0.707s-0.105-0.52-0.293-0.707l-1.076-1.077c0.135-0.284,0.256-0.576,0.361-0.873H23  c0.553,0,1-0.448,1-1v-4c0-0.552-0.447-1-1-1h-1.522c-0.105-0.297-0.227-0.589-0.361-0.873l1.076-1.077  c0.188-0.188,0.293-0.442,0.293-0.707s-0.105-0.52-0.293-0.707l-2.828-2.829c-0.391-0.391-1.023-0.391-1.414,0l-1.077,1.076  c-0.284-0.135-0.575-0.256-0.873-0.361V35c0-0.552-0.447-1-1-1h-4c-0.553,0-1,0.448-1,1v1.522c-0.298,0.105-0.589,0.226-0.873,0.361  L8.05,35.808c-0.391-0.391-1.023-0.391-1.414,0l-2.828,2.829c-0.188,0.188-0.293,0.442-0.293,0.707s0.105,0.52,0.293,0.707  l1.076,1.077C4.749,41.411,4.628,41.703,4.522,42H3c-0.553,0-1,0.448-1,1v4C2,47.552,2.447,48,3,48z M4,44h1.262  c0.456,0,0.854-0.308,0.968-0.75c0.164-0.634,0.415-1.24,0.746-1.8c0.231-0.393,0.168-0.893-0.154-1.215l-0.893-0.892l1.414-1.415  l0.893,0.892c0.323,0.324,0.823,0.386,1.216,0.154c0.559-0.33,1.164-0.58,1.799-0.744c0.441-0.114,0.75-0.512,0.75-0.968V36h2v1.262  c0,0.456,0.309,0.854,0.75,0.968c0.635,0.164,1.24,0.414,1.799,0.744c0.391,0.232,0.893,0.169,1.216-0.154l0.893-0.892l1.414,1.415  l-0.893,0.892c-0.322,0.322-0.386,0.822-0.154,1.215c0.331,0.56,0.582,1.166,0.746,1.8c0.114,0.441,0.512,0.75,0.968,0.75H22v2  h-1.262c-0.456,0-0.854,0.308-0.968,0.75c-0.164,0.634-0.415,1.24-0.746,1.8c-0.231,0.393-0.168,0.893,0.154,1.215l0.893,0.892  l-1.414,1.415l-0.893-0.892c-0.322-0.323-0.822-0.386-1.216-0.154c-0.559,0.33-1.164,0.58-1.799,0.744  C14.309,51.883,14,52.282,14,52.738V54h-2v-1.262c0-0.456-0.309-0.854-0.75-0.968c-0.635-0.164-1.24-0.414-1.799-0.744  c-0.392-0.232-0.894-0.169-1.216,0.154l-0.893,0.892l-1.414-1.415l0.893-0.892c0.322-0.322,0.386-0.822,0.154-1.215  c-0.331-0.56-0.582-1.166-0.746-1.8C6.115,46.308,5.718,46,5.262,46H4V44z" fill="#143d59" style=""></path><path d="M38,54c2.757,0,5-2.243,5-5s-2.243-5-5-5s-5,2.243-5,5S35.243,54,38,54z M38,46c1.654,0,3,1.346,3,3s-1.346,3-3,3  s-3-1.346-3-3S36.346,46,38,46z" fill="#143d59" style=""></path><path d="M38,36c2.757,0,5-2.243,5-5s-2.243-5-5-5s-5,2.243-5,5S35.243,36,38,36z M38,28c1.654,0,3,1.346,3,3s-1.346,3-3,3  s-3-1.346-3-3S36.346,28,38,28z" fill="#143d59" style=""></path><path d="M38,18c2.757,0,5-2.243,5-5s-2.243-5-5-5s-5,2.243-5,5S35.243,18,38,18z M38,10c1.654,0,3,1.346,3,3s-1.346,3-3,3  s-3-1.346-3-3S36.346,10,38,10z" fill="#143d59" style=""></path><path d="M45,32h8c0.552,0,1,0.449,1,1v4h2v-4c0-1.654-1.346-3-3-3h-8V32z" fill="#143d59" style=""></path><rect x="54" y="39" width="2" height="2" fill="#143d59" style=""></rect><path d="M45,50h8c1.654,0,3-1.346,3-3v-4h-2v4c0,0.551-0.448,1-1,1h-8V50z" fill="#143d59" style=""></path><path d="M20,29c0,1.654,1.346,3,3,3h8v-2h-8c-0.552,0-1-0.449-1-1v-4h-2V29z" fill="#143d59" style=""></path><rect x="20" y="21" width="2" height="2" fill="#143d59" style=""></rect><path d="M22,15c0-0.551,0.448-1,1-1h8v-2h-8c-1.654,0-3,1.346-3,3v4h2V15z" fill="#143d59" style=""></path><path d="M52.553,16.895C52.694,16.965,52.848,17,53,17c0.212,0,0.424-0.068,0.6-0.2l4-3c0.252-0.188,0.4-0.485,0.4-0.8  s-0.148-0.611-0.4-0.8l-4-3c-0.303-0.228-0.709-0.264-1.047-0.095C52.214,9.275,52,9.621,52,10v2h-7v2h7v2  C52,16.379,52.214,16.725,52.553,16.895z M54,12l1.333,1L54,14V12z" fill="#143d59" style=""></path><rect x="26" y="48" width="5" height="2" fill="#143d59" style=""></rect><path d="M61,2H13c-0.553,0-1,0.448-1,1v29h2V4h46v56H14v-2h-2v3c0,0.552,0.447,1,1,1h48c0.553,0,1-0.448,1-1V3  C62,2.448,61.553,2,61,2z" fill="#143d59" style=""></path><desc>Created with Snap</desc><defs></defs></g><g><g transform="matrix(1.024,0,0,-1.024,0,0)"><path d="M194 -12Q133 -12 92 24Q52 60 52 126Q52 206 123 248Q194 291 350 308Q350 331 345 353Q341 375 330 392Q319 409 299 419Q280 430 250 430Q208 430 171 414Q134 398 105 378L73 435Q107 457 156 477Q205 498 264 498Q353 498 393 443Q433 389 433 298L433 0L365 0L358 58L355 58Q320 29 280 8Q240 -12 194 -12ZM218 54Q253 54 284 70Q315 87 350 119L350 254Q289 246 247 235Q206 224 180 209Q155 194 143 174Q132 155 132 132Q132 90 157 72Q182 54 218 54ZM759 0L663 0L528 486L612 486L684 205Q692 170 699 137Q706 104 713 70L717 70Q725 104 733 137Q741 171 750 205L825 486L905 486L981 205Q990 170 998 137Q1007 104 1015 70L1019 70Q1027 104 1034 137Q1041 170 1049 205L1120 486L1198 486L1068 0L968 0L898 261Q889 296 881 330Q874 364 865 401L861 401Q853 364 845 329Q837 295 827 260L759 0ZM1501 -12Q1452 -12 1409 5Q1367 23 1335 55Q1304 88 1286 135Q1268 182 1268 242Q1268 302 1286 349Q1305 397 1335 430Q1366 463 1405 480Q1444 498 1486 498Q1532 498 1568 482Q1605 466 1629 436Q1654 406 1667 364Q1680 322 1680 270Q1680 257 1679 244Q1679 232 1677 223L1349 223Q1354 145 1397 99Q1441 54 1511 54Q1546 54 1575 64Q1605 75 1632 92L1661 38Q1629 18 1590 3Q1551 -12 1501 -12ZM1348 282L1608 282Q1608 356 1576 394Q1545 433 1488 433Q1462 433 1438 423Q1415 413 1396 393Q1377 374 1364 346Q1352 318 1348 282ZM1927 -12Q1875 -12 1828 7Q1781 26 1746 55L1787 110Q1819 84 1852 68Q1886 52 1930 52Q1978 52 2002 74Q2026 96 2026 128Q2026 147 2016 161Q2006 175 1990 185Q1975 196 1955 204Q1935 212 1915 220Q1889 229 1863 240Q1837 252 1816 268Q1796 285 1783 307Q1770 329 1770 360Q1770 389 1781 414Q1793 440 1814 458Q1836 477 1867 487Q1898 498 1937 498Q1983 498 2021 482Q2060 466 2088 443L2049 391Q2024 410 1997 422Q1970 434 1938 434Q1892 434 1870 413Q1849 392 1849 364Q1849 347 1858 334Q1867 322 1882 312Q1897 303 1916 295Q1936 288 1957 280Q1983 270 2009 259Q2036 248 2057 231Q2078 215 2091 191Q2105 167 2105 133Q2105 103 2093 77Q2082 51 2059 31Q2037 11 2003 -1Q1970 -12 1927 -12ZM2408 -12Q2363 -12 2322 5Q2282 22 2251 54Q2220 87 2201 134Q2183 182 2183 242Q2183 303 2201 350Q2220 398 2251 431Q2282 464 2322 481Q2363 498 2408 498Q2453 498 2493 481Q2534 464 2565 431Q2596 398 2614 350Q2633 303 2633 242Q2633 182 2614 134Q2596 87 2565 54Q2534 22 2493 5Q2453 -12 2408 -12ZM2408 56Q2439 56 2465 69Q2491 83 2509 107Q2528 132 2538 166Q2548 200 2548 242Q2548 284 2538 318Q2528 353 2509 378Q2491 403 2465 416Q2439 430 2408 430Q2377 430 2351 416Q2325 403 2306 378Q2288 353 2278 318Q2268 284 2268 242Q2268 200 2278 166Q2288 132 2306 107Q2325 83 2351 69Q2377 56 2408 56ZM2843 0L2761 0L2761 486L2829 486L2836 416L2839 416Q2871 451 2908 474Q2946 498 2990 498Q3046 498 3077 473Q3109 449 3124 405Q3162 447 3200 472Q3239 498 3284 498Q3359 498 3395 450Q3432 402 3432 308L3432 0L3350 0L3350 297Q3350 366 3328 396Q3306 427 3260 427Q3205 427 3138 352L3138 0L3056 0L3056 297Q3056 366 3034 396Q3012 427 2965 427Q2910 427 2843 352L2843 0ZM3787 -12Q3738 -12 3695 5Q3653 23 3621 55Q3590 88 3572 135Q3554 182 3554 242Q3554 302 3572 349Q3591 397 3621 430Q3652 463 3691 480Q3730 498 3772 498Q3818 498 3854 482Q3891 466 3915 436Q3940 406 3953 364Q3966 322 3966 270Q3966 257 3965 244Q3965 232 3963 223L3635 223Q3640 145 3683 99Q3727 54 3797 54Q3832 54 3861 64Q3891 75 3918 92L3947 38Q3915 18 3876 3Q3837 -12 3787 -12ZM3634 282L3894 282Q3894 356 3862 394Q3831 433 3774 433Q3748 433 3724 423Q3701 413 3682 393Q3663 374 3650 346Q3638 318 3634 282Z" fill="#143d59" style=""></path></g></g><g transform="matrix(1,0,0,1,6.144,829.4401)"><g transform="matrix(1.024,0,0,-1.024,0,0)"><path d="M274 -12Q226 -12 184 5Q142 22 111 54Q81 87 63 134Q46 182 46 242Q46 303 65 350Q84 398 116 431Q148 464 190 481Q233 498 280 498Q328 498 362 481Q396 464 422 441L380 387Q359 406 335 418Q312 430 283 430Q250 430 222 416Q194 403 174 378Q154 353 142 318Q131 284 131 242Q131 200 142 166Q153 132 172 107Q192 83 220 69Q248 56 281 56Q315 56 343 70Q372 85 395 105L431 50Q398 21 358 4Q318 -12 274 -12ZM727 -12Q682 -12 641 5Q601 22 570 54Q539 87 520 134Q502 182 502 242Q502 303 520 350Q539 398 570 431Q601 464 641 481Q682 498 727 498Q772 498 812 481Q853 464 884 431Q915 398 933 350Q952 303 952 242Q952 182 933 134Q915 87 884 54Q853 22 812 5Q772 -12 727 -12ZM727 56Q758 56 784 69Q810 83 828 107Q847 132 857 166Q867 200 867 242Q867 284 857 318Q847 353 828 378Q810 403 784 416Q758 430 727 430Q696 430 670 416Q644 403 625 378Q607 353 597 318Q587 284 587 242Q587 200 597 166Q607 132 625 107Q644 83 670 69Q696 56 727 56ZM1162 0L1080 0L1080 486L1148 486L1155 416L1158 416Q1190 451 1227 474Q1265 498 1309 498Q1365 498 1396 473Q1428 449 1443 405Q1481 447 1519 472Q1558 498 1603 498Q1678 498 1714 450Q1751 402 1751 308L1751 0L1669 0L1669 297Q1669 366 1647 396Q1625 427 1579 427Q1524 427 1457 352L1457 0L1375 0L1375 297Q1375 366 1353 396Q1331 427 1284 427Q1229 427 1162 352L1162 0ZM1991 -205L1909 -205L1909 486L1977 486L1984 430L1987 430Q2020 458 2059 478Q2099 498 2142 498Q2189 498 2225 480Q2261 463 2285 430Q2309 398 2321 352Q2334 307 2334 250Q2334 188 2317 139Q2300 91 2271 57Q2242 23 2204 5Q2166 -12 2124 -12Q2090 -12 2056 3Q2023 18 1989 44L1991 -41L1991 -205ZM2110 57Q2140 57 2165 70Q2191 84 2209 108Q2228 133 2238 169Q2249 205 2249 250Q2249 290 2242 323Q2235 356 2219 379Q2204 403 2179 416Q2155 429 2121 429Q2090 429 2058 412Q2027 395 1991 363L1991 108Q2024 80 2055 68Q2086 57 2110 57ZM2576 -12Q2515 -12 2474 24Q2434 60 2434 126Q2434 206 2505 248Q2576 291 2732 308Q2732 331 2727 353Q2723 375 2712 392Q2701 409 2681 419Q2662 430 2632 430Q2590 430 2553 414Q2516 398 2487 378L2455 435Q2489 457 2538 477Q2587 498 2646 498Q2735 498 2775 443Q2815 389 2815 298L2815 0L2747 0L2740 58L2737 58Q2702 29 2662 8Q2622 -12 2576 -12ZM2600 54Q2635 54 2666 70Q2697 87 2732 119L2732 254Q2671 246 2629 235Q2588 224 2562 209Q2537 194 2525 174Q2514 155 2514 132Q2514 90 2539 72Q2564 54 2600 54ZM3050 0L2968 0L2968 486L3036 486L3043 416L3046 416Q3081 451 3119 474Q3158 498 3209 498Q3286 498 3321 450Q3357 402 3357 308L3357 0L3275 0L3275 297Q3275 366 3253 396Q3231 427 3183 427Q3145 427 3116 408Q3087 389 3050 352L3050 0ZM3523 -209Q3506 -209 3492 -207Q3478 -204 3466 -199L3482 -134Q3490 -136 3500 -139Q3510 -141 3519 -141Q3561 -141 3587 -112Q3614 -82 3629 -37L3640 -1L3445 486L3530 486L3629 217Q3640 185 3652 149Q3665 114 3676 80L3680 80Q3691 113 3701 149Q3711 185 3721 217L3808 486L3888 486L3705 -40Q3692 -76 3676 -107Q3660 -138 3638 -161Q3616 -183 3588 -196Q3560 -209 3523 -209Z" fill="#143d59" style=""></path></g></g></g></svg>